# This file uses centimeters as units for non-parametric coordinates.

v 35.670244 72.112972 32.164617
v 32.191534 72.112972 35.643328
v 35.670244 79.365081 32.164617
v 32.191534 79.365081 35.643328
v 51.069898 79.365081 47.564272
v 47.591188 79.365081 51.042982
v 51.069898 72.112972 47.564272
v 47.591188 72.112972 51.042982
v 53.157834 79.365081 45.476336
v 45.503253 79.365081 53.130917
v 45.503253 72.112972 53.130917
v 53.157834 72.112972 45.476336
v 60.760381 79.365081 60.733465
v 60.760381 72.112972 60.733465
vt 0.375000 0.000000
vt 0.625000 0.000000
vt 0.375000 0.250000
vt 0.625000 0.250000
vt 0.375000 0.500000
vt 0.625000 0.500000
vt 0.375000 0.750000
vt 0.625000 0.750000
vt 0.375000 1.000000
vt 0.625000 1.000000
vt 0.875000 0.000000
vt 0.875000 0.250000
vt 0.125000 0.000000
vt 0.125000 0.250000
vt 0.375000 0.500000
vt 0.625000 0.500000
vt 0.625000 0.750000
vt 0.375000 0.750000
vt 0.500000 0.500000
vt 0.500000 0.750000
vn -0.707107 0.000000 -0.707107
vn -0.707107 0.000000 -0.707107
vn -0.707107 0.000000 -0.707107
vn -0.707107 0.000000 -0.707107
vn -0.000000 1.000000 0.000000
vn -0.000000 1.000000 0.000000
vn -0.000000 1.000000 0.000000
vn -0.000000 1.000000 0.000000
vn 0.000000 -1.000000 0.000000
vn 0.000000 -1.000000 0.000000
vn 0.000000 -1.000000 0.000000
vn 0.000000 -1.000000 0.000000
vn -0.707107 0.000000 0.707107
vn -0.707107 0.000000 0.707107
vn -0.707107 0.000000 0.707107
vn -0.707107 0.000000 0.707107
vn 0.707107 0.000000 -0.707107
vn 0.707107 0.000000 -0.707107
vn 0.707107 0.000000 -0.707107
vn 0.707107 0.000000 -0.707107
vn -0.000000 0.000000 0.000000
vn -0.000000 0.000000 0.000000
vn -0.000000 0.000000 0.000000
vn -0.000000 0.000000 0.000000
vn -0.707107 0.000000 -0.707107
vn -0.707107 0.000000 -0.707107
vn -0.707107 0.000000 -0.707107
vn -0.707107 0.000000 -0.707107
vn -0.000000 0.000000 0.000000
vn -0.000000 0.000000 0.000000
vn -0.000000 0.000000 0.000000
vn -0.000000 0.000000 0.000000
vn -0.707107 0.000000 -0.707107
vn -0.707107 0.000000 -0.707107
vn -0.707107 0.000000 -0.707107
vn -0.707107 0.000000 -0.707107
vn -0.000000 1.000000 0.000000
vn -0.000000 1.000000 0.000000
vn -0.000000 1.000000 0.000000
vn -0.445992 0.000000 0.895037
vn -0.445992 0.000000 0.895037
vn -0.445992 0.000000 0.895037
vn -0.445992 0.000000 0.895037
vn 0.000000 -1.000000 0.000000
vn 0.000000 -1.000000 0.000000
vn 0.000000 -1.000000 0.000000
vn 0.895037 0.000000 -0.445992
vn 0.895037 0.000000 -0.445992
vn 0.895037 0.000000 -0.445992
vn 0.895037 0.000000 -0.445992
f 1/1/1 2/2/2 4/4/3 3/3/4
f 3/3/5 4/4/6 6/6/7 5/5/8
f 7/7/9 8/8/10 2/10/11 1/9/12
f 2/2/13 8/11/14 6/12/15 4/4/16
f 7/13/17 1/1/18 3/3/19 5/14/20
f 5/5/21 6/6/22 10/16/23 9/15/24
f 6/6/25 8/8/26 11/17/27 10/16/28
f 8/8/29 7/7/30 12/18/31 11/17/32
f 7/7/33 5/5/34 9/15/35 12/18/36
f 9/15/37 10/16/38 13/19/39
f 10/16/40 11/17/41 14/20/42 13/19/43
f 11/17/44 12/18/45 14/20/46
f 12/18/47 9/15/48 13/19/49 14/20/50
