# This file uses centimeters as units for non-parametric coordinates.

v -37.551802 71.103955 4.821801
v -37.551802 71.103955 -5.232474
v -37.551802 80.374098 4.821801
v -37.551802 80.374098 -5.232474
v -65.390446 80.374098 4.821801
v -65.390446 80.374098 -5.232474
v -65.390446 71.103955 4.821801
v -65.390446 71.103955 -5.232474
v -65.390446 80.374098 10.856416
v -65.390446 80.374098 -11.267089
v -65.390446 71.103955 -11.267089
v -65.390446 71.103955 10.856416
v -86.052676 80.374098 -0.205336
v -86.052676 71.103955 -0.205336
vt 0.375000 0.000000
vt 0.625000 0.000000
vt 0.375000 0.250000
vt 0.625000 0.250000
vt 0.375000 0.500000
vt 0.625000 0.500000
vt 0.375000 0.750000
vt 0.625000 0.750000
vt 0.375000 1.000000
vt 0.625000 1.000000
vt 0.875000 0.000000
vt 0.875000 0.250000
vt 0.125000 0.000000
vt 0.125000 0.250000
vt 0.375000 0.500000
vt 0.625000 0.500000
vt 0.625000 0.750000
vt 0.375000 0.750000
vt 0.500000 0.500000
vt 0.500000 0.750000
vn 1.000000 0.000000 0.000000
vn 1.000000 0.000000 0.000000
vn 1.000000 0.000000 0.000000
vn 1.000000 0.000000 0.000000
vn 0.000000 1.000000 0.000000
vn 0.000000 1.000000 0.000000
vn 0.000000 1.000000 0.000000
vn 0.000000 1.000000 0.000000
vn 0.000000 -1.000000 0.000000
vn 0.000000 -1.000000 0.000000
vn 0.000000 -1.000000 0.000000
vn 0.000000 -1.000000 0.000000
vn 0.000000 0.000000 -1.000000
vn 0.000000 0.000000 -1.000000
vn 0.000000 0.000000 -1.000000
vn 0.000000 0.000000 -1.000000
vn -0.000000 0.000000 1.000000
vn -0.000000 0.000000 1.000000
vn -0.000000 0.000000 1.000000
vn -0.000000 0.000000 1.000000
vn 0.000000 0.000000 0.000000
vn 0.000000 0.000000 0.000000
vn 0.000000 0.000000 0.000000
vn 0.000000 0.000000 0.000000
vn 1.000000 0.000000 0.000000
vn 1.000000 0.000000 0.000000
vn 1.000000 0.000000 0.000000
vn 1.000000 0.000000 0.000000
vn 0.000000 0.000000 0.000000
vn 0.000000 0.000000 0.000000
vn 0.000000 0.000000 0.000000
vn 0.000000 0.000000 0.000000
vn 1.000000 0.000000 0.000000
vn 1.000000 0.000000 0.000000
vn 1.000000 0.000000 0.000000
vn 1.000000 0.000000 0.000000
vn 0.000000 1.000000 0.000000
vn 0.000000 1.000000 0.000000
vn 0.000000 1.000000 0.000000
vn -0.471979 0.000000 -0.881610
vn -0.471979 0.000000 -0.881610
vn -0.471979 0.000000 -0.881610
vn -0.471979 0.000000 -0.881610
vn 0.000000 -1.000000 0.000000
vn 0.000000 -1.000000 0.000000
vn 0.000000 -1.000000 0.000000
vn -0.471979 0.000000 0.881610
vn -0.471979 0.000000 0.881610
vn -0.471979 0.000000 0.881610
vn -0.471979 0.000000 0.881610
f 1/1/1 2/2/2 4/4/3 3/3/4
f 3/3/5 4/4/6 6/6/7 5/5/8
f 7/7/9 8/8/10 2/10/11 1/9/12
f 2/2/13 8/11/14 6/12/15 4/4/16
f 7/13/17 1/1/18 3/3/19 5/14/20
f 5/5/21 6/6/22 10/16/23 9/15/24
f 6/6/25 8/8/26 11/17/27 10/16/28
f 8/8/29 7/7/30 12/18/31 11/17/32
f 7/7/33 5/5/34 9/15/35 12/18/36
f 9/15/37 10/16/38 13/19/39
f 10/16/40 11/17/41 14/20/42 13/19/43
f 11/17/44 12/18/45 14/20/46
f 12/18/47 9/15/48 13/19/49 14/20/50
